<svg width="16" height="17" viewBox="0 0 16 17" fill="none" xmlns="http://www.w3.org/2000/svg">
<circle cx="8" cy="8.5" r="8" fill="url(#paint0_linear_2586_15592)"/>
<path d="M11.4998 7.36977C11.6595 6.32741 10.8463 5.7671 9.73418 5.39332L10.095 3.98135L9.21412 3.76718L8.86292 5.14197C8.63135 5.08562 8.39355 5.03252 8.15719 4.97987L8.51094 3.596L7.63065 3.38184L7.26969 4.79335C7.07806 4.75077 6.88985 4.7087 6.70725 4.66436L6.70827 4.65992L5.49358 4.36394L5.25926 5.28195C5.25926 5.28195 5.91277 5.42812 5.899 5.43712C6.25569 5.52399 6.32019 5.75439 6.30948 5.93701L5.89853 7.54558C5.92309 7.55166 5.95495 7.56047 5.9901 7.57425C5.96072 7.56713 5.92945 7.55936 5.897 7.55178L5.32098 9.80515C5.27739 9.91089 5.16675 10.0696 4.91737 10.0093C4.92619 10.0218 4.27716 9.85342 4.27716 9.85342L3.83984 10.8373L4.98611 11.1161C5.19935 11.1683 5.40832 11.2229 5.61411 11.2742L5.24961 12.7024L6.12943 12.9166L6.49039 11.5036C6.73075 11.5672 6.96401 11.626 7.19236 11.6813L6.83261 13.0877L7.71348 13.3018L8.07794 11.8764C9.57995 12.1537 10.7093 12.0419 11.1847 10.7162C11.5678 9.6489 11.1656 9.03327 10.3754 8.63181C10.951 8.50229 11.3845 8.13291 11.5001 7.36988L11.4998 7.36969L11.4998 7.36977ZM9.48728 10.1235C9.21506 11.1908 7.37343 10.6139 6.77634 10.4692L7.26004 8.5771C7.85708 8.72255 9.77177 9.01038 9.48732 10.1235H9.48728ZM9.75969 7.3543C9.51137 8.32514 7.97856 7.83191 7.48132 7.71097L7.91986 5.99497C8.41709 6.11592 10.0184 6.34165 9.75977 7.3543H9.75969Z" fill="white"/>
<defs>
<linearGradient id="paint0_linear_2586_15592" x1="8" y1="0.5" x2="8" y2="16.5" gradientUnits="userSpaceOnUse">
<stop stop-color="#FFA941"/>
<stop offset="1" stop-color="#F08300"/>
</linearGradient>
</defs>
</svg>
