<svg width="16" height="17" viewBox="0 0 16 17" fill="none" xmlns="http://www.w3.org/2000/svg">
<g id="Solana">
<path id="Vector" d="M8 16.5C12.4334 16.5 16 12.9334 16 8.5C16 4.06664 12.4334 0.5 8 0.5C3.56664 0.5 0 4.06664 0 8.5C0 12.9334 3.56664 16.5 8 16.5Z" fill="url(#paint0_linear_2586_15622)"/>
<g id="Solana logo">
<path id="Vector_2" d="M4.85035 10.7483C4.90667 10.692 4.98411 10.6592 5.06624 10.6592H12.5143C12.6504 10.6592 12.7185 10.8234 12.6223 10.9197L11.1509 12.391C11.0946 12.4473 11.0172 12.4801 10.9351 12.4801H3.48699C3.35088 12.4801 3.28283 12.3159 3.37904 12.2197L4.85035 10.7483Z" fill="white"/>
<path id="Vector_3" d="M4.85035 5.25519C4.90902 5.19887 4.98646 5.16602 5.06624 5.16602H12.5143C12.6504 5.16602 12.7185 5.33028 12.6223 5.42649L11.1509 6.8978C11.0946 6.95412 11.0172 6.98697 10.9351 6.98697H3.48699C3.35088 6.98697 3.28283 6.82271 3.37904 6.7265L4.85035 5.25519Z" fill="white"/>
<path id="Vector_4" d="M11.1509 7.98468C11.0946 7.92836 11.0172 7.89551 10.9351 7.89551H3.48699C3.35088 7.89551 3.28283 8.05977 3.37904 8.15598L4.85035 9.62729C4.90667 9.68361 4.98411 9.71646 5.06624 9.71646H12.5143C12.6504 9.71646 12.7185 9.5522 12.6223 9.45599L11.1509 7.98468Z" fill="white"/>
</g>
</g>
<defs>
<linearGradient id="paint0_linear_2586_15622" x1="0" y1="16.5" x2="16" y2="0.5" gradientUnits="userSpaceOnUse">
<stop stop-color="#D923FE"/>
<stop offset="1" stop-color="#0BF5A8"/>
</linearGradient>
</defs>
</svg>
