<svg width="16" height="17" viewBox="0 0 16 17" fill="none" xmlns="http://www.w3.org/2000/svg">
<g id="USDC">
<path id="Vector" d="M8 16.5C12.4334 16.5 16 12.9334 16 8.5C16 4.06664 12.4334 0.5 8 0.5C3.56664 0.5 0 4.06664 0 8.5C0 12.9334 3.56664 16.5 8 16.5Z" fill="url(#paint0_linear_2586_15614)"/>
<g id="Group 22">
<g id="Group 21">
<path id="Vector_2" d="M9.87153 9.53487C9.87153 8.49905 9.27582 8.1439 8.08438 7.99595C7.23336 7.87754 7.06315 7.6408 7.06315 7.22642C7.06315 6.81203 7.34685 6.54575 7.91418 6.54575C8.42479 6.54575 8.70849 6.72332 8.8503 7.16725C8.87869 7.25604 8.9638 7.31521 9.0489 7.31521H9.50273C9.61623 7.31521 9.70133 7.22642 9.70133 7.10808V7.07847C9.58784 6.42734 9.07722 5.92424 8.42479 5.86507V5.15478C8.42479 5.03637 8.33969 4.94759 8.19788 4.91797H7.77236C7.65887 4.91797 7.57377 5.00676 7.54538 5.15478V5.83545C6.69435 5.95386 6.15541 6.54575 6.15541 7.28566C6.15541 8.26231 6.72274 8.647 7.91418 8.79503C8.70849 8.94298 8.9638 9.12056 8.9638 9.59411C8.9638 10.0677 8.56661 10.3932 8.02767 10.3932C7.29007 10.3932 7.03476 10.0676 6.94966 9.62366C6.92134 9.50532 6.83623 9.44608 6.75113 9.44608H6.26884C6.15542 9.44608 6.07031 9.53487 6.07031 9.65328V9.68289C6.18374 10.4227 6.63764 10.9555 7.57377 11.1035V11.8138C7.57377 11.9321 7.65887 12.0209 7.80068 12.0505H8.2262C8.33969 12.0505 8.42479 11.9617 8.45318 11.8138V11.1035C9.30421 10.9555 9.87153 10.3339 9.87153 9.53487Z" fill="white"/>
<path id="Vector_3" d="M6.55216 12.6423C4.3395 11.8136 3.20478 9.23882 4.02748 6.95992C4.45299 5.7169 5.38912 4.76987 6.55216 4.32594C6.66566 4.26677 6.72237 4.17798 6.72237 4.02996V3.61565C6.72237 3.49724 6.66566 3.40845 6.55216 3.37891C6.52377 3.37891 6.46706 3.37891 6.43867 3.40845C3.74378 4.29632 2.26865 7.28551 3.11967 10.0971C3.63029 11.7544 4.85011 13.027 6.43867 13.5597C6.55216 13.6189 6.66566 13.5597 6.69398 13.4413C6.72237 13.4118 6.72237 13.3822 6.72237 13.323V12.9086C6.72237 12.8198 6.63727 12.7015 6.55216 12.6423ZM9.55914 3.40845C9.44565 3.34929 9.33216 3.40845 9.30383 3.52686C9.27544 3.55648 9.27544 3.58603 9.27544 3.64527V4.05958C9.27544 4.17799 9.36055 4.29632 9.44565 4.35556C11.6583 5.18419 12.793 7.759 11.9703 10.0379C11.5448 11.2809 10.6087 12.2279 9.44565 12.6719C9.33216 12.731 9.27544 12.8198 9.27544 12.9679V13.3822C9.27544 13.5006 9.33216 13.5894 9.44565 13.6189C9.47404 13.6189 9.53075 13.6189 9.55914 13.5894C12.254 12.7015 13.7292 9.7123 12.8781 6.90075C12.3675 5.2138 11.1193 3.94117 9.55914 3.40845Z" fill="white"/>
</g>
</g>
</g>
<defs>
<linearGradient id="paint0_linear_2586_15614" x1="8" y1="0.5" x2="8" y2="16.5" gradientUnits="userSpaceOnUse">
<stop stop-color="#2775CA"/>
<stop offset="1" stop-color="#133A64"/>
</linearGradient>
</defs>
</svg>
