<svg width="16" height="17" viewBox="0 0 16 17" fill="none" xmlns="http://www.w3.org/2000/svg">
<circle cx="8" cy="8.5" r="8" fill="url(#paint0_linear_2586_15609)"/>
<path fill-rule="evenodd" clip-rule="evenodd" d="M8.91106 9.05164C8.86015 9.05542 8.59711 9.07096 8.01035 9.07096C7.54366 9.07096 7.21231 9.0571 7.09606 9.05164C5.29252 8.97311 3.94634 8.66234 3.94634 8.29026C3.94634 7.91818 5.29252 7.60783 7.09606 7.52804V8.74213C7.21401 8.75053 7.55172 8.77027 8.01841 8.77027C8.57844 8.77027 8.85888 8.74717 8.90936 8.74255V7.52888C10.7091 7.60825 12.0523 7.91902 12.0523 8.29026C12.0523 8.6615 10.7095 8.97227 8.90936 9.05122L8.91106 9.05164ZM8.91106 7.40331V6.31688H11.4227V4.66016H4.58443V6.31688H7.09564V7.40289C5.05451 7.4957 3.51953 7.89592 3.51953 8.37551C3.51953 8.8551 5.05451 9.2549 7.09564 9.34813V12.8296H8.91063V9.34687C10.9471 9.25406 12.4795 8.85426 12.4795 8.37509C12.4795 7.89592 10.9484 7.49612 8.91063 7.40289L8.91106 7.40331Z" fill="white"/>
<defs>
<linearGradient id="paint0_linear_2586_15609" x1="8" y1="0.5" x2="8" y2="16.5" gradientUnits="userSpaceOnUse">
<stop stop-color="#66CAB0"/>
<stop offset="1" stop-color="#1A7860"/>
</linearGradient>
</defs>
</svg>
