<svg width="16" height="16" viewBox="0 0 16 16" fill="none" xmlns="http://www.w3.org/2000/svg">
<path d="M10.5 4C10.5 3.33696 10.2366 2.70107 9.76777 2.23223C9.29893 1.76339 8.66304 1.5 8 1.5C7.33696 1.5 6.70107 1.76339 6.23223 2.23223C5.76339 2.70107 5.5 3.33696 5.5 4C5.5 4.66304 5.76339 5.29893 6.23223 5.76777C6.70107 6.23661 7.33696 6.5 8 6.5C8.66304 6.5 9.29893 6.23661 9.76777 5.76777C10.2366 5.29893 10.5 4.66304 10.5 4ZM4 4C4 2.93913 4.42143 1.92172 5.17157 1.17157C5.92172 0.421427 6.93913 0 8 0C9.06087 0 10.0783 0.421427 10.8284 1.17157C11.5786 1.92172 12 2.93913 12 4C12 5.06087 11.5786 6.07828 10.8284 6.82843C10.0783 7.57857 9.06087 8 8 8C6.93913 8 5.92172 7.57857 5.17157 6.82843C4.42143 6.07828 4 5.06087 4 4ZM3.03125 14.5H12.9688L11.8906 11H4.10938L3.03125 14.5ZM3 9.5H13L14.5375 14.5L15 16H13.4312H2.56875H1L1.4625 14.5L3 9.5Z" fill="#313448"/>
</svg>
