<svg width="16" height="24" viewBox="0 0 16 24" fill="none" xmlns="http://www.w3.org/2000/svg">
<path fill-rule="evenodd" clip-rule="evenodd" d="M4.88281e-05 0H1.05393V1.04745H4.88281e-05V0ZM4.19998 0V1.04745V2.08657H3.1543V0H4.19998ZM8.40624 3.13416V4.17347H6.29883V3.13416H8.40624ZM7.35232 6.25989H8.40544V7.30734H7.35156V6.26026H6.29883V5.22095H7.35232V6.25989ZM7.35156 0H8.40544V1.04745H7.35156V0ZM7.35232 1.04749H6.29883V2.0868H7.35232V1.04749ZM2.09998 1.04749H1.05469V2.0868H2.09998V1.04749ZM5.25406 5.22104V3.13428H3.1543V5.22104H5.25406ZM3.15349 5.22095H2.09961V6.25989H1.05469V7.30734H2.09998V6.26026H3.15349V5.22095ZM14.7047 13.5675V12.5282H13.6509V11.4807H12.6052V10.4333H11.5513V9.39395H5.25347V10.4333H4.19959V11.4807H2.10003V13.5675H1.05473V19.8269H2.10003V20.8744H3.15391V21.9137H4.19959V22.9607H5.25347V24.0001H11.5513V22.9607H12.6052V21.9137H13.6509V20.8744H14.7047V19.8269H15.75V13.5675H14.7047ZM13.6507 16.7014V17.7407H12.605V15.6543H13.6507V16.7014ZM11.5511 14.6149H12.605V15.6543H11.5511V14.6149ZM11.5511 14.6149H10.5054V13.5679H11.5511V14.6149ZM11.5511 18.7881V17.7407H12.605V18.7881H11.5511ZM11.5511 18.7881V19.8274H10.5054V18.7881H11.5511ZM2.09998 10.4333H1.05469V11.4808H2.09998V10.4333ZM1.05407 7.30756V8.34687V10.4335H0V7.30756H1.05407Z" fill="#E9EAF0"/>
</svg>
