<svg width="24" height="24" viewBox="0 0 24 24" fill="none" xmlns="http://www.w3.org/2000/svg">
<g clip-path="url(#clip0_69_569)">
<path d="M12 21.75C9.41414 21.75 6.93419 20.7228 5.10571 18.8943C3.27723 17.0658 2.25 14.5859 2.25 12C2.25 9.41414 3.27723 6.93419 5.10571 5.10571C6.93419 3.27723 9.41414 2.25 12 2.25C14.5859 2.25 17.0658 3.27723 18.8943 5.10571C20.7228 6.93419 21.75 9.41414 21.75 12C21.75 14.5859 20.7228 17.0658 18.8943 18.8943C17.0658 20.7228 14.5859 21.75 12 21.75ZM12 -5.24537e-07C8.8174 -6.63652e-07 5.76515 1.26428 3.51472 3.51472C1.26428 5.76515 -3.85421e-07 8.8174 -5.24537e-07 12C-6.63652e-07 15.1826 1.26428 18.2348 3.51472 20.4853C5.76515 22.7357 8.8174 24 12 24C15.1826 24 18.2348 22.7357 20.4853 20.4853C22.7357 18.2348 24 15.1826 24 12C24 8.8174 22.7357 5.76516 20.4853 3.51472C18.2348 1.26428 15.1826 -3.85421e-07 12 -5.24537e-07ZM17.6672 13.8094C17.8781 13.6125 18 13.3359 18 13.0453C18 12.4687 17.5312 12 16.9547 12L14.25 12L14.25 7.5C14.25 6.67031 13.5797 6 12.75 6L11.25 6C10.4203 6 9.75 6.67031 9.75 7.5L9.75 12L7.04531 12C6.46875 12 6 12.4687 6 13.0453C6 13.3359 6.12188 13.6125 6.33281 13.8094L11.3531 18.4922C11.5313 18.6562 11.7609 18.75 12 18.75C12.2391 18.75 12.4734 18.6562 12.6469 18.4922L17.6672 13.8094Z" fill="#CDEAFF"/>
</g>
<defs>
<clipPath id="clip0_69_569">
<rect width="24" height="24" fill="white"/>
</clipPath>
</defs>
</svg>
