<svg width="24" height="24" viewBox="0 0 24 24" fill="none" xmlns="http://www.w3.org/2000/svg">
<g clip-path="url(#clip0_69_564)">
<path d="M12 2.25C14.5859 2.25 17.0658 3.27723 18.8943 5.10571C20.7228 6.93419 21.75 9.41414 21.75 12C21.75 14.5859 20.7228 17.0658 18.8943 18.8943C17.0658 20.7228 14.5859 21.75 12 21.75C9.41414 21.75 6.93419 20.7228 5.10571 18.8943C3.27723 17.0658 2.25 14.5859 2.25 12C2.25 9.41414 3.27723 6.93419 5.10571 5.10571C6.93419 3.27723 9.41414 2.25 12 2.25ZM12 24C15.1826 24 18.2348 22.7357 20.4853 20.4853C22.7357 18.2348 24 15.1826 24 12C24 8.8174 22.7357 5.76515 20.4853 3.51472C18.2348 1.26428 15.1826 0 12 0C8.8174 0 5.76516 1.26428 3.51472 3.51472C1.26428 5.76515 0 8.8174 0 12C0 15.1826 1.26428 18.2348 3.51472 20.4853C5.76516 22.7357 8.8174 24 12 24ZM6.33281 10.1906C6.12188 10.3875 6 10.6641 6 10.9547C6 11.5313 6.46875 12 7.04531 12H9.75V16.5C9.75 17.3297 10.4203 18 11.25 18H12.75C13.5797 18 14.25 17.3297 14.25 16.5V12L16.9547 12C17.5312 12 18 11.5313 18 10.9547C18 10.6641 17.8781 10.3875 17.6672 10.1906L12.6469 5.50781C12.4687 5.34375 12.2391 5.25 12 5.25C11.7609 5.25 11.5266 5.34375 11.3531 5.50781L6.33281 10.1906Z" fill="#CDEAFF"/>
</g>
<defs>
<clipPath id="clip0_69_564">
<rect width="24" height="24" fill="white"/>
</clipPath>
</defs>
</svg>
