<svg width="24" height="24" viewBox="0 0 24 24" fill="none" xmlns="http://www.w3.org/2000/svg">
<path d="M12.7323 0C11.5726 0 10.5687 0.689063 10.092 1.6875C9.77112 1.56562 9.42734 1.5 9.06522 1.5C7.44713 1.5 6.13158 2.84531 6.13158 4.5V12.2578L6.00781 12.1312C4.86186 10.9594 3.00542 10.9594 1.85946 12.1312C0.713512 13.3031 0.713512 15.2016 1.85946 16.3734L5.87947 20.4844C8.0797 22.7344 11.0638 24 14.1762 24H14.5658H14.9325C15.0013 24 15.07 23.9953 15.1388 23.9813C19.3421 23.6906 22.7021 20.2594 22.9817 15.9609C22.9954 15.8906 23 15.8203 23 15.75V7.5C23 5.84531 21.6844 4.5 20.0664 4.5C19.8143 4.5 19.5667 4.53281 19.333 4.59375V4.5C19.333 2.84531 18.0174 1.5 16.3993 1.5C16.0372 1.5 15.6934 1.56562 15.3725 1.6875C14.8958 0.689063 13.892 0 12.7323 0ZM11.9989 4.50469V4.5V3C11.9989 2.5875 12.3289 2.25 12.7323 2.25C13.1356 2.25 13.4657 2.5875 13.4657 3V4.49531V4.5V10.875C13.4657 11.4984 13.9561 12 14.5658 12C15.1754 12 15.6659 11.4984 15.6659 10.875V4.5C15.6659 4.5 15.6659 4.5 15.6659 4.49531C15.6659 4.08281 15.9959 3.74531 16.3993 3.74531C16.8027 3.74531 17.1327 4.08281 17.1327 4.49531V7.11563V7.12031V10.8703C17.1327 11.4937 17.6232 11.9953 18.2328 11.9953C18.8425 11.9953 19.333 11.4937 19.333 10.8703V7.50469V7.5C19.333 7.0875 19.663 6.75 20.0664 6.75C20.4697 6.75 20.7998 7.0875 20.7998 7.5V15.6047C20.7952 15.6328 20.7952 15.6656 20.7906 15.6937C20.6348 18.9609 18.0724 21.5812 14.8775 21.7406C14.85 21.7406 14.8179 21.7453 14.7904 21.75H14.5658H14.1762C11.6459 21.75 9.22106 20.7234 7.43338 18.8953L3.41338 14.7797C3.12918 14.4891 3.12918 14.0109 3.41338 13.7203C3.69757 13.4297 4.16512 13.4297 4.44932 13.7203L6.45244 15.7687C6.76873 16.0922 7.24086 16.1859 7.6534 16.0125C8.06594 15.8391 8.3318 15.4266 8.3318 14.9719V4.5C8.3318 4.0875 8.66184 3.75 9.06522 3.75C9.46859 3.75 9.79862 4.08281 9.79862 4.49531V10.875C9.79862 11.4984 10.2891 12 10.8987 12C11.5084 12 11.9989 11.4984 11.9989 10.875V4.50469Z" fill="#CDEAFF"/>
</svg>
