<svg width="16" height="16" viewBox="0 0 16 16" fill="none" xmlns="http://www.w3.org/2000/svg">
<g id="info-alert" clip-path="url(#clip0_3476_6218)">
<path id="Vector" d="M8 14.5C6.27609 14.5 4.62279 13.8152 3.40381 12.5962C2.18482 11.3772 1.5 9.72391 1.5 8C1.5 6.27609 2.18482 4.62279 3.40381 3.40381C4.62279 2.18482 6.27609 1.5 8 1.5C9.72391 1.5 11.3772 2.18482 12.5962 3.40381C13.8152 4.62279 14.5 6.27609 14.5 8C14.5 9.72391 13.8152 11.3772 12.5962 12.5962C11.3772 13.8152 9.72391 14.5 8 14.5ZM8 -3.49691e-07C5.87827 -4.42435e-07 3.84344 0.842854 2.34314 2.34315C0.842853 3.84344 -2.56947e-07 5.87827 -3.49691e-07 8C-4.42435e-07 10.1217 0.842853 12.1566 2.34314 13.6569C3.84343 15.1571 5.87827 16 8 16C10.1217 16 12.1566 15.1571 13.6569 13.6569C15.1571 12.1566 16 10.1217 16 8C16 5.87827 15.1571 3.84344 13.6569 2.34315C12.1566 0.842855 10.1217 -2.56947e-07 8 -3.49691e-07Z" fill="#CDEAFF"/>
<g id="Group 1097">
<path id="Vector_2" d="M7 7.75C7 7.05964 7.55964 6.5 8.25 6.5C8.94036 6.5 9.5 7.05964 9.5 7.75V11.25C9.5 11.9404 8.94036 12.5 8.25 12.5C7.55964 12.5 7 11.9404 7 11.25V7.75Z" fill="#CDEAFF"/>
<circle id="Ellipse 18" cx="8.25" cy="4.25" r="1.25" fill="#CDEAFF"/>
</g>
</g>
<defs>
<clipPath id="clip0_3476_6218">
<rect width="16" height="16" fill="white"/>
</clipPath>
</defs>
</svg>
