<svg width="296" height="296" viewBox="0 0 296 296" fill="none" xmlns="http://www.w3.org/2000/svg">
<rect x="0.5" y="0.5" width="295" height="295" rx="23.5" stroke="#045A99"/>
<path d="M55.5 64.75H74M27.75 27.75H101.75V101.75H27.75V27.75Z" stroke="#E9EAF0" stroke-width="16" stroke-linejoin="round"/>
<path d="M222 64.75H240.5M194.25 27.75H268.25V101.75H194.25V27.75Z" stroke="#E9EAF0" stroke-width="16" stroke-linejoin="round"/>
<path d="M55.5 231.25H74M27.75 194.25H101.75V268.25H27.75V194.25Z" stroke="#E9EAF0" stroke-width="16" stroke-linejoin="round"/>
<path d="M166.5 27.75H138.75V64.75H157.25V101.75H138.75V129.5" stroke="#E9EAF0" stroke-width="16" stroke-linejoin="round"/>
<path d="M18.5 138.75H37M55.5 138.75H92.5M148 138.75H166.5M185 138.75H222M259 138.75H277.5" stroke="#E9EAF0" stroke-width="16" stroke-linejoin="round"/>
<path d="M37 157.25H55.5M74 157.25H148M203.5 157.25H222M240.5 157.25H277.5" stroke="#E9EAF0" stroke-width="16" stroke-linejoin="round"/>
<path d="M129.5 175.75H148M166.5 175.75H185M240.5 175.75H259" stroke="#E9EAF0" stroke-width="16" stroke-linejoin="round"/>
<path d="M148 194.25H166.5M185 194.25H259" stroke="#E9EAF0" stroke-width="16" stroke-linejoin="round"/>
<path d="M129.5 212.75H148M166.5 212.75H185M222 212.75H240.5M259 212.75H277.5" stroke="#E9EAF0" stroke-width="16" stroke-linejoin="round"/>
<path d="M129.5 231.25H166.5M185 231.25H203.5M222 231.25H259" stroke="#E9EAF0" stroke-width="16" stroke-linejoin="round"/>
<path d="M129.5 249.75H148M203.5 249.75H222M259 249.75H277.5" stroke="#E9EAF0" stroke-width="16" stroke-linejoin="round"/>
<path d="M148 268.25H222M240.5 268.25H259" stroke="#E9EAF0" stroke-width="16" stroke-linejoin="round"/>
</svg>
