<svg width="16" height="16" viewBox="0 0 16 16" fill="none" xmlns="http://www.w3.org/2000/svg">
<g clip-path="url(#clip0_578_5315)">
<path d="M10.2371 0L10.6905 2.0875C11.06 2.25938 11.4139 2.4625 11.74 2.7L13.7644 2.05L16 5.94688L14.4289 7.3875C14.4475 7.5875 14.4568 7.79062 14.4568 7.99687C14.4568 8.20312 14.4475 8.40625 14.4289 8.60625L16 10.0469L13.7644 13.9438L11.74 13.2937C11.4108 13.5281 11.06 13.7344 10.6905 13.9062L10.2371 16H5.76596L5.31263 13.9125C4.94314 13.7406 4.58917 13.5375 4.26315 13.3L2.23559 13.95L0 10.0531L1.57112 8.6125C1.55249 8.4125 1.54318 8.20938 1.54318 8.00313C1.54318 7.79688 1.55249 7.59375 1.57112 7.39375L0 5.95L2.23559 2.05312L4.26004 2.70312C4.58917 2.46875 4.94003 2.2625 5.30953 2.09063L5.76596 0H10.2371ZM12.1933 4.13125L11.4822 4.35938L10.8768 3.925C10.6222 3.74375 10.352 3.58437 10.0695 3.45312L9.39259 3.14062L9.23423 2.40937L9.03862 1.5H6.96449L6.76577 2.40937L6.60741 3.14062L5.93053 3.45312C5.64487 3.58437 5.37473 3.74375 5.12323 3.925L4.51776 4.35938L3.80982 4.13125L2.928 3.85L1.89094 5.65312L2.57403 6.28125L3.12362 6.78438L3.05531 7.52812C3.03978 7.68437 3.03357 7.84062 3.03357 8C3.03357 8.15938 3.03978 8.31563 3.05531 8.47188L3.12362 9.21562L2.57403 9.71875L1.89094 10.3469L2.928 12.1531L3.80982 11.8719L4.52086 11.6438L5.12633 12.0781C5.38094 12.2594 5.65108 12.4187 5.93363 12.55L6.61052 12.8625L6.76887 13.5938L6.96759 14.5031H9.03862L9.23734 13.5938L9.39569 12.8625L10.0726 12.55C10.3582 12.4187 10.6284 12.2594 10.8799 12.0781L11.4853 11.6438L12.1964 11.8719L13.0782 12.1531L14.1153 10.3469L13.4291 9.71875L12.8795 9.21562L12.9478 8.47188C12.9633 8.31563 12.9695 8.15938 12.9695 8C12.9695 7.84062 12.9633 7.68437 12.9478 7.52812L12.8795 6.78438L13.4291 6.28125L14.1153 5.65312L13.0782 3.84687L12.1964 4.12813L12.1933 4.13125ZM9.49195 8C9.49195 7.60218 9.33492 7.22064 9.05542 6.93934C8.77592 6.65804 8.39683 6.5 8.00155 6.5C7.60628 6.5 7.22719 6.65804 6.94768 6.93934C6.66818 7.22064 6.51116 7.60218 6.51116 8C6.51116 8.39782 6.66818 8.77936 6.94768 9.06066C7.22719 9.34196 7.60628 9.5 8.00155 9.5C8.39683 9.5 8.77592 9.34196 9.05542 9.06066C9.33492 8.77936 9.49195 8.39782 9.49195 8ZM5.02076 8C5.02076 7.20435 5.33481 6.44129 5.89382 5.87868C6.45282 5.31607 7.211 5 8.00155 5C8.79211 5 9.55028 5.31607 10.1093 5.87868C10.6683 6.44129 10.9823 7.20435 10.9823 8C10.9823 8.79565 10.6683 9.55871 10.1093 10.1213C9.55028 10.6839 8.79211 11 8.00155 11C7.211 11 6.45282 10.6839 5.89382 10.1213C5.33481 9.55871 5.02076 8.79565 5.02076 8Z" fill="#CDEAFF"/>
</g>
<defs>
<clipPath id="clip0_578_5315">
<rect width="16" height="16" fill="white"/>
</clipPath>
</defs>
</svg>
