<svg width="16" height="16" viewBox="0 0 16 16" fill="none" xmlns="http://www.w3.org/2000/svg">
<g clip-path="url(#clip0_578_5306)">
<path d="M8.57143 1.71429V14.2857H7.42857V1.71429H8.57143ZM7.42857 0H5.71429V1.71429V14.2857V16H7.42857H8.57143H10.2857V14.2857V1.71429V0H8.57143H7.42857ZM2.85714 8.57143V14.2857H1.71429V8.57143H2.85714ZM1.71429 6.85714H0V8.57143V14.2857V16H1.71429H2.85714H4.57143V14.2857V8.57143V6.85714H2.85714H1.71429ZM13.1429 4H14.2857V14.2857H13.1429V4ZM11.4286 2.28571V4V14.2857V16H13.1429H14.2857H16V14.2857V4V2.28571H14.2857H13.1429H11.4286Z" fill="#CDEAFF"/>
</g>
<defs>
<clipPath id="clip0_578_5306">
<rect width="16" height="16" fill="white"/>
</clipPath>
</defs>
</svg>
