<svg width="56" height="46" viewBox="0 0 56 46" fill="none" xmlns="http://www.w3.org/2000/svg">
<path d="M19.6 18.8C21.4565 18.8 23.237 18.0625 24.5497 16.7497C25.8625 15.437 26.6 13.6565 26.6 11.8C26.6 9.94346 25.8625 8.16298 24.5497 6.85023C23.237 5.53747 21.4565 4.79997 19.6 4.79997C17.7435 4.79997 15.963 5.53747 14.6503 6.85023C13.3375 8.16298 12.6 9.94346 12.6 11.8C12.6 13.6565 13.3375 15.437 14.6503 16.7497C15.963 18.0625 17.7435 18.8 19.6 18.8ZM19.6 0.599976C22.5704 0.599976 25.4192 1.77997 27.5196 3.88038C29.62 5.98079 30.8 8.82955 30.8 11.8C30.8 14.7704 29.62 17.6192 27.5196 19.7196C25.4192 21.82 22.5704 23 19.6 23C16.6296 23 13.7808 21.82 11.6804 19.7196C9.58 17.6192 8.4 14.7704 8.4 11.8C8.4 8.82955 9.58 5.98079 11.6804 3.88038C13.7808 1.77997 16.6296 0.599976 19.6 0.599976ZM8.70625 31.4L5.6875 41.2H28H33.5125H33.6V45.4H4.3925H0L1.295 41.2L5.6 27.2H33.6V31.4H30.4937H28H8.70625ZM46.2 21.6C44.6512 21.6 43.4 22.8512 43.4 24.4V28.6H49V24.4C49 22.8512 47.7487 21.6 46.2 21.6ZM39.2 24.4C39.2 20.5325 42.3325 17.4 46.2 17.4C50.0675 17.4 53.2 20.5325 53.2 24.4V28.6H56V45.4H36.4V28.6H39.2V24.4Z" fill="#E9EAF0"/>
</svg>
