<svg width="12" height="12" viewBox="0 0 12 12" fill="none" xmlns="http://www.w3.org/2000/svg">
<g clip-path="url(#clip0_441_2543)">
<path d="M6 6C6.79565 6 7.55871 5.68393 8.12132 5.12132C8.68393 4.55871 9 3.79565 9 3C9 2.20435 8.68393 1.44129 8.12132 0.87868C7.55871 0.316071 6.79565 0 6 0C5.20435 0 4.44129 0.316071 3.87868 0.87868C3.31607 1.44129 3 2.20435 3 3C3 3.79565 3.31607 4.55871 3.87868 5.12132C4.44129 5.68393 5.20435 6 6 6ZM4.92891 7.125C2.62031 7.125 0.75 8.99531 0.75 11.3039C0.75 11.6883 1.06172 12 1.44609 12H10.5539C10.9383 12 11.25 11.6883 11.25 11.3039C11.25 8.99531 9.37969 7.125 7.07109 7.125H4.92891Z" fill="#E9EAF0"/>
</g>
<defs>
<clipPath id="clip0_441_2543">
<rect width="12" height="12" fill="white"/>
</clipPath>
</defs>
</svg>
