<svg width="16" height="16" viewBox="0 0 16 16" fill="none" xmlns="http://www.w3.org/2000/svg">
<path d="M0.75 1H0V1.75V14.25V15H0.75H15.25H16V14.25V4.75V4H15.25H3.75H3V5.5H3.75H14.5V13.5H1.5V2.5H14.25H15V1H14.25H0.75ZM12 10.5C12.2652 10.5 12.5196 10.3946 12.7071 10.2071C12.8946 10.0196 13 9.76522 13 9.5C13 9.23478 12.8946 8.98043 12.7071 8.79289C12.5196 8.60536 12.2652 8.5 12 8.5C11.7348 8.5 11.4804 8.60536 11.2929 8.79289C11.1054 8.98043 11 9.23478 11 9.5C11 9.76522 11.1054 10.0196 11.2929 10.2071C11.4804 10.3946 11.7348 10.5 12 10.5Z" fill="#CDEAFF"/>
</svg>
